PathFileType	3	(X/Y/Z)	D:\minhoCalibration\240510\subject1_KPNP\preferred\preferred20.trc
DataRate	CameraRate	NumFrames	NumMarkers	Units	OrigDataRate	OrigDataStartFrame	OrigNumFrames
200.0	200.0	27	10	mm	200.0	516	219	
Frame#	Time	Left_Ankle_Outer1			Left_Ankle_Inner1			Left_Knee_Outer1			Left_Knee_Inner1			Left_Wrist1			Right_Wrist1			Right_Knee_Inner1			Right_Knee_Outer1			Right_Ankle_Inner1			Right_Ankle_Outer1			
		X1	Y1	Z1	X2	Y2	Z2	X3	Y3	Z3	X4	Y4	Z4	X5	Y5	Z5	X6	Y6	Z6	X7	Y7	Z7	X8	Y8	Z8	X9	Y9	Z9	X10	Y10	Z10	
516	2.57	-586.271	154.71425	-540.09845	-619.03729	162.58443	-492.83676	-410.34219	562.98492	-430.09613	-501.88583	544.80927	-372.59384	-464.68927	990.25195	-633.28491	-673.44684	1198.2488	-415.4187	-313.776	1048.5022	-147.52637	-389.48541	1126.1353	-115.06616	-334.60706	928.57037	291.48038	-341.94525	1026.5834	339.66476
517	2.575	-585.96655	155.96344	-538.05164	-618.57483	163.7429	-491.11343	-411.08569	564.07684	-426.0961	-502.36279	545.38831	-371.31693	-462.47839	992.26733	-628.91748	-677.59961	1197.0139	-411.08865	-317.39923	1043.4329	-144.4218	-392.08871	1120.8359	-109.86995	-339.34796	915.3902	289.13577	-345.53955	1008.9507	341.19742
518	2.58	-585.30469	157.46635	-536.68994	-618.34393	164.75392	-489.66321	-411.3082	565.48724	-422.7735	-503.56161	546.72479	-367.67245	-460.09415	994.61163	-624.58142	-681.22736	1194.707	-409.14383	-321.57596	1037.7721	-141.16039	-393.45331	1115.2074	-104.98617	-335.49609	895.67645	287.63098	-348.64355	990.14075	342.22192
519	2.585	-584.87604	158.50687	-535.27942	-618.21405	165.91219	-488.45718	-411.88361	566.66925	-419.85519	-503.87167	547.18127	-367.01465	-457.65216	996.93903	-620.35254	-684.92926	1192.2792	-406.83658	-326.03876	1031.6183	-137.7749	-394.6962	1109.3229	-100.27041	-332.68454	878.78503	287.39658	-351.95999	970.20453	342.75037
520	2.59	-584.35602	159.54488	-534.21533	-617.9115	166.71304	-487.54324	-412.43365	567.81647	-417.47263	-505.38855	548.64465	-363.24133	-454.98608	999.565	-616.242	-688.84344	1189.7539	-404.75607	-330.98407	1025.1542	-134.36179	-396.72314	1103.2914	-95.697166	-336.7764	861.61047	281.63617	-355.64594	949.9549	342.9559
521	2.595	-583.94836	160.27925	-533.14423	-617.65698	167.62944	-486.74878	-413.01898	568.86163	-415.57303	-506.16312	549.45215	-361.66913	-452.87872	1001.6184	-612.29443	-692.78467	1186.9061	-402.83453	-336.12241	1018.6949	-131.18579	-400.21805	1097.2072	-91.121727	-338.15085	844.45715	278.20865	-359.29922	929.42365	342.42142
522	2.6	-583.35748	161.11478	-532.62738	-617.26196	168.2011	-486.40475	-413.74673	569.45673	-413.9382	-506.63452	549.9505	-361.1644	-450.62708	1003.9166	-608.70038	-696.44928	1183.8669	-401.40417	-341.36316	1012.5403	-128.42654	-405.21841	1090.8566	-86.714226	-338.70547	825.25037	274.53003	-363.41766	908.7439	341.32703
523	2.605	-582.76892	161.68196	-532.34259	-616.75397	168.34911	-486.57681	-414.56357	570.30792	-412.46921	-507.95691	550.71521	-359.8132	-448.77237	1005.9767	-605.32782	-700.0097	1180.9635	-399.98972	-346.48355	1006.7989	-126.04332	-411.35986	1084.0402	-82.55719	-340.20663	807.42596	270.81982	-368.17828	887.98834	339.64993
524	2.61	-582.02179	162.22581	-532.57324	-616.66718	168.74872	-486.63745	-415.43509	570.91168	-411.10629	-509.79584	551.43634	-358.80658	-446.87787	1008.2054	-602.2962	-703.2876	1178.2468	-398.8689	-351.22739	1001.5009	-124.15108	-418.27478	1076.7683	-78.637794	-342.63895	789.69403	266.08618	-374.14752	866.74609	337.22681
525	2.615	-581.52594	162.44113	-532.64453	-616.45416	168.92337	-486.99054	-416.31403	571.37195	-409.90848	-510.87619	551.68884	-358.85602	-445.92496	1009.9194	-598.85535	-706.36469	1175.4092	-397.99728	-353.00479	997.49463	-124.20594	-425.57172	1068.993	-75.071793	-345.81601	771.75861	261.01123	-380.1593	844.90527	334.25168
526	2.62	-580.93536	162.58705	-532.98383	-616.39978	168.98026	-487.61478	-417.26251	571.75055	-408.75201	-512.55389	551.7489	-358.79962	-444.66846	1011.671	-596.04541	-709.45935	1172.6399	-397.20862	-359.55618	992.46631	-121.13194	-432.99942	1060.9216	-71.767906	-349.7681	753.65326	255.76747	-387.71683	822.92383	330.64078
527	2.625	-580.39966	162.48177	-533.34003	-616.01721	168.91895	-488.24884	-418.25797	571.89594	-407.70432	-514.03564	551.67987	-359.18954	-443.11356	1013.3231	-593.78418	-712.67029	1169.6028	-396.35416	-363.23959	988.61377	-119.73892	-440.42789	1052.4969	-68.598923	-354.36942	735.82281	248.78787	-395.91205	800.34125	326.13885
528	2.63	-579.89264	162.27435	-533.88373	-615.93188	168.7301	-489.18253	-418.73935	572.35107	-406.96982	-515.5213	551.6449	-359.65717	-442.57025	1014.3458	-590.73608	-715.50714	1166.4703	-395.84613	-366.30923	985.08582	-118.4336	-447.81683	1043.5947	-65.664246	-360.05112	717.80334	240.85802	-404.4675	777.50659	320.44376
529	2.635	-579.68958	161.80899	-534.08734	-615.46851	168.38943	-490.18033	-419.87909	571.99841	-405.87933	-517.47516	551.66913	-359.71259	-441.90662	1015.395	-587.7782	-717.98254	1163.0935	-395.51456	-369.54602	981.48969	-116.61828	-455.11121	1034.309	-62.987766	-365.78549	699.50769	233.87102	-413.61374	754.72931	313.96744
530	2.64	-579.09723	161.62648	-535.0368	-615.14478	167.81409	-491.45172	-420.7276	571.39581	-405.12042	-518.81976	551.42535	-360.40756	-441.07443	1016.1752	-585.17871	-720.08337	1159.5813	-395.37332	-373.04175	977.52228	-114.52062	-462.03806	1024.4623	-60.77504	-372.70413	680.78192	225.3898	-423.24875	731.7453	306.28775
531	2.645	-578.63806	161.16113	-535.8302	-615.24701	167.49115	-492.64212	-421.9798	570.81482	-404.23883	-520.36633	550.69055	-361.16559	-440.20526	1016.8069	-582.80402	-721.93958	1156.2947	-395.33868	-376.47983	972.9079	-112.33035	-468.80032	1014.75	-58.747871	-380.50668	661.92133	216.19662	-434.05188	709.25079	298.17429
532	2.65	-578.33746	160.63815	-536.59705	-615.27246	166.95767	-493.6142	-422.59131	570.27423	-403.58881	-521.55652	550.15588	-361.71759	-439.42715	1017.2637	-580.58276	-723.6062	1153.1106	-395.40747	-380.4408	966.82434	-109.87057	-475.15454	1004.5589	-57.283054	-388.96924	642.74017	206.18541	-444.80133	686.52203	288.61984
533	2.655	-578.12317	160.1496	-537.35919	-615.09375	166.22575	-494.76221	-422.9588	569.61786	-403.22516	-522.52844	549.49188	-362.36243	-438.51273	1017.5917	-578.59473	-724.8974	1150.1843	-395.73441	-383.00504	960.60797	-108.44881	-481.12982	994.34796	-56.096062	-398.12097	624.59357	195.70702	-456.38461	664.65381	278.75461
534	2.66	-578.2309	159.27029	-537.85004	-615.16956	165.63586	-495.77261	-423.15549	568.96503	-402.94043	-523.21381	548.72998	-362.85367	-437.61041	1017.8702	-576.69446	-726.45752	1147.4711	-395.80673	-386.49762	952.90137	-106.92792	-486.6236	984.11371	-55.174286	-408.10934	605.80023	184.50847	-468.25262	643.13013	268.07761
535	2.665	-578.03015	158.76598	-538.93524	-614.96979	165.12834	-496.80124	-423.25919	568.09534	-402.88428	-523.44525	547.70184	-363.33441	-436.76508	1017.9489	-574.92291	-727.83911	1144.6743	-396.05392	-390.22482	944.12	-105.81986	-491.5304	973.78339	-54.488132	-418.91769	586.99023	172.89705	-480.19791	622.00061	256.66815
536	2.67	-578.10797	158.07086	-539.80298	-615.67352	164.25909	-497.89072	-423.22473	567.18506	-402.92233	-523.59961	546.92456	-363.5354	-435.94339	1017.9915	-573.19464	-729.50507	1141.7457	-396.04077	-394.15961	934.53815	-105.1931	-496.01282	963.40051	-54.003551	-431.74725	568.20856	161.53532	-492.67316	601.43042	244.6857
537	2.675	-578.20789	157.35887	-540.7356	-615.88983	163.54951	-498.81021	-423.05408	566.13019	-403.00119	-523.59644	545.61316	-363.95377	-435.09146	1017.9269	-571.43622	-731.18256	1138.7313	-396.12811	-397.96173	924.41797	-105.11426	-500.18066	952.96637	-53.775043	-442.74106	550.1925	148.19736	-505.48172	581.25049	232.37718
538	2.68	-578.50751	156.49445	-541.40326	-616.35211	162.7088	-499.77802	-422.77045	564.95575	-403.21564	-523.86542	544.34418	-364.0679	-434.38971	1017.6431	-569.73608	-733.2121	1135.2484	-396.08383	-401.97363	914.03394	-105.12065	-504.20303	942.36029	-53.794941	-455.03052	532.71497	134.69795	-518.56769	561.39203	219.04724
539	2.685	-578.9516	155.60678	-542.14319	-616.79193	161.86174	-500.62924	-422.1618	563.7627	-403.53403	-523.06635	542.91309	-364.1622	-433.59384	1017.2498	-568.01245	-735.02222	1131.6639	-396.28561	-406.05045	903.74597	-105.15035	-508.2226	931.67749	-54.11903	-468.81171	514.88861	121.71024	-531.97614	542.01636	205.1792
540	2.69	-579.6377	154.39275	-542.62781	-617.41016	160.92963	-501.46927	-421.784	562.36902	-403.75394	-522.58936	541.48767	-364.25165	-432.95129	1016.7457	-566.24158	-736.90399	1127.7937	-396.60159	-410.50665	893.03217	-105.51329	-512.35382	920.86877	-54.807182	-480.02252	497.95639	106.3215	-545.67078	522.70349	190.48724
541	2.695	-580.315	153.2515	-543.33142	-618.21057	159.88744	-502.33661	-421.35422	560.7738	-403.94711	-522.34381	540.05542	-363.98938	-432.36572	1016.0317	-564.49664	-738.72504	1123.7159	-396.93521	-415.16522	882.302	-106.14938	-516.77588	910.05713	-55.812756	-493.15015	481.18582	91.923347	-559.49988	504.34558	175.40717
542	2.7	-580.98065	152.32338	-544.45898	-619.22473	158.71252	-503.2168	-420.9111	559.14899	-404.05923	-521.84094	538.45361	-363.82431	-431.84729	1015.0887	-562.76428	-740.38013	1119.3671	-397.46921	-419.99277	871.62152	-107.19434	-521.6228	899.16003	-57.165127	-505.32907	465.21939	76.259117	-573.35803	485.68289	158.77234
